<?xml version="1.0" standalone="no"?><!DOCTYPE svg PUBLIC "-//W3C//DTD SVG 1.1//EN" "http://www.w3.org/Graphics/SVG/1.1/DTD/svg11.dtd">
<svg x="0.0000mm" y="0.0000mm" width="26.4580mm" height="35.9830mm" viewBox="0.0000 0.0000 26.4580 35.9830" version="1.1" xmlns="http://www.w3.org/2000/svg" shape-rendering="crispEdges">
<title>TBarCode - 11.12.1.16467</title>
<desc>BarCode licensed to MEM:TEC-IT Datenverarbeitung GmbH Internal License</desc>
<g fill="rgb(0%,0%,0%)">
</g>
<g fill="rgb(100%,100%,100%)">
<rect x="0.0000" y="0.0000" width="26.4580" height="35.9830" />
</g>
<g fill="rgb(0%,0%,0%)">
</g>
<g fill="rgb(0%,0%,0%)">
<rect x="0.0000" y="34.9247" width="20.1864" height="1.0583" />
<rect x="0.0000" y="33.8664" width="20.1864" height="0.5292" />
<rect x="0.0000" y="32.2789" width="20.1864" height="0.5292" />
<rect x="0.0000" y="29.1039" width="20.1864" height="1.0583" />
<rect x="0.0000" y="26.9872" width="20.1864" height="1.5875" />
<rect x="0.0000" y="25.9289" width="20.1864" height="0.5292" />
<rect x="0.0000" y="23.8123" width="20.1864" height="0.5292" />
<rect x="0.0000" y="21.6956" width="20.1864" height="1.5875" />
<rect x="0.0000" y="19.0498" width="20.1864" height="2.1166" />
<rect x="0.0000" y="17.9915" width="20.1864" height="0.5292" />
<rect x="0.0000" y="15.8749" width="20.1864" height="1.0583" />
<rect x="0.0000" y="13.7582" width="20.1864" height="1.5875" />
<rect x="0.0000" y="12.1707" width="20.1864" height="0.5292" />
<rect x="0.0000" y="9.5249" width="20.1864" height="2.1166" />
<rect x="0.0000" y="7.9374" width="20.1864" height="0.5292" />
<rect x="0.0000" y="5.8208" width="20.1864" height="1.0583" />
<rect x="0.0000" y="2.6458" width="20.1864" height="1.5875" />
<rect x="0.0000" y="1.5875" width="20.1864" height="0.5292" />
<rect x="0.0000" y="-0.0000" width="20.1864" height="1.0583" />
</g>
<g fill="rgb(0%,0%,0%)">
<text x="25.2821" y="17.9915" transform="rotate(270 25.2821,17.9915)" text-anchor="middle" font-family="Arial" font-size="5.6444" >S13</text>
</g>
</svg>
